<?xml version="1.0" encoding="utf-8"?>
<!-- Generator: Adobe Illustrator 23.0.3, SVG Export Plug-In . SVG Version: 6.00 Build 0)  -->
<svg version="1.1" id="图层_1" xmlns="http://www.w3.org/2000/svg" xmlns:xlink="http://www.w3.org/1999/xlink" x="0px" y="0px"
	 viewBox="0 0 72.5 80.9" style="enable-background:new 0 0 72.5 80.9;" xml:space="preserve">
<style type="text/css">
	.st0{fill:url(#SVGID_1_);}
	.st1{fill:url(#SVGID_2_);}
	.st2{fill:url(#SVGID_3_);}
</style>
<linearGradient id="SVGID_1_" gradientUnits="userSpaceOnUse" x1="24.8194" y1="37.7291" x2="49.4284" y2="37.7291">
	<stop  offset="0" style="stop-color:#7CA5D7"/>
	<stop  offset="0.3117" style="stop-color:#024B8F"/>
	<stop  offset="1" style="stop-color:#095194"/>
</linearGradient>
<path class="st0" d="M49.4,37.4c-1.6-0.7-3.2-1.3-4.9-1.7c-0.1-2-0.5-4-1.2-5.9c-1.1-2.8-4-5.4-7.2-5.1c0,0,0,0-0.1,0
	c-3.7,0.4-5.9,4.5-6.4,7.8c-0.2,1-0.2,2-0.2,3c0,1.7,0.3,3.4,0.7,5c0,0,0,0.1,0,0.1c0.4,1.5,0.9,2.9,1.5,4.3
	c1.1,2.5,2.9,6.6,5.7,7.8c-1.1,1.1-2.3,2-3.7,2.8l0,0c-4.5-4.2-7.1-9.6-8-12.9v0l-0.7-5c0,0,0,0,0-0.1v0c-0.2-1.2-1.5-13.9,9.4-17.5
	C34.4,20.1,47.9,16.9,49.4,37.4z"/>
<linearGradient id="SVGID_2_" gradientUnits="userSpaceOnUse" x1="35.1245" y1="37.3" x2="51.1792" y2="55.2968">
	<stop  offset="0" style="stop-color:#8E1D22"/>
	<stop  offset="0.3117" style="stop-color:#EC6F6F"/>
	<stop  offset="1" style="stop-color:#8F1D22"/>
</linearGradient>
<path class="st1" d="M57,59.4c-2.7,2.3-6.7,2.6-10.1,2.3c-1.6-0.2-3.3-0.4-4.8-0.8c-0.3-0.1-4.9-2-4.5-2.4c1.2-0.9,2.5-1.9,3.8-3.3
	c0.1,0,0.2,0.1,0.2,0.1c1.9,0.7,3.8,1.2,5.8,1.4c2,0.2,4.3,0,5.8-1.3c1.6-1.4,2.1-3.7,1.6-5.7c-0.5-2-1.8-3.8-3.3-5.2
	c-0.9-0.8-1.9-1.6-3-2.2c-1.4-0.8-2.8-1.5-4.4-1.9c0,0,0,0,0,0c-0.9-0.3-1.8-0.5-2.8-0.6c-1.5-0.2-3-0.3-4.5-0.2
	c-2.3,0.1-4.5,0.5-6.7,1.2c0,0,0-0.1,0-0.1h0c-0.4-1.6-0.7-3.3-0.7-5c2.2-0.3,4.4-0.5,6.7-0.6c2,0,3.9,0,5.8,0.3
	c0.9,0.1,1.7,0.3,2.6,0.5c1.7,0.4,3.3,0.9,4.9,1.7c1.4,0.7,2.8,1.5,4,2.4c3.3,2.6,5.8,6.3,6.4,10.4C60.3,53.5,59.5,57.2,57,59.4z"/>
<linearGradient id="SVGID_3_" gradientUnits="userSpaceOnUse" x1="43.1071" y1="26.9273" x2="21.6146" y2="63.4387">
	<stop  offset="0.113" style="stop-color:#0E6032"/>
	<stop  offset="0.3787" style="stop-color:#5BB645"/>
	<stop  offset="0.6046" style="stop-color:#76BF62"/>
	<stop  offset="0.6463" style="stop-color:#60B252"/>
	<stop  offset="0.6957" style="stop-color:#4BA746"/>
	<stop  offset="0.7547" style="stop-color:#39A03E"/>
	<stop  offset="0.8324" style="stop-color:#2B9D3A"/>
	<stop  offset="1" style="stop-color:#269B3A"/>
</linearGradient>
<path class="st2" d="M48.7,42.3c-1.8,5.7-4.5,10.1-7.2,12.9v0c-1.3,1.3-2.6,2.4-3.8,3.3c-3.8,2.6-6.9,3.2-6.9,3.2s-13.8,4.1-15.8-7
	c-2-11,9.2-16.7,9.2-16.7l0.8-0.4c0,0.1,0,0.1,0,0.1l0.7,5v0c-7.1,2.8-10.1,16.9,2.5,14.9c2.1-0.3,3.9-1,5.5-2c0,0,0,0,0,0l0,0
	c1.4-0.8,2.6-1.8,3.7-2.8c0.1-0.1,0.1-0.1,0.2-0.2c0.1,0,0.2-0.1,0.3-0.2c0.3-0.2,0.6-0.6,0.9-0.9c0.1-0.1,0.1-0.1,0.2-0.2
	c0-0.1,0.1-0.1,0.1-0.2c0.1-0.1,0.2-0.2,0.2-0.3c0-0.1,0.1-0.1,0.1-0.2c0.1-0.1,0.2-0.3,0.2-0.3c0.1-0.2,0.3-0.4,0.4-0.5
	c0.1-0.2,0.2-0.3,0.4-0.5c0,0,0.1-0.1,0.1-0.1c0.2-0.3,0.4-0.6,0.6-0.9c0,0,0,0,0-0.1c0,0,0-0.1,0.1-0.1c0,0,0-0.1,0.1-0.1
	c0,0,0,0,0,0c0.1-0.2,0.3-0.5,0.4-0.7c0.1-0.1,0.1-0.2,0.2-0.3c0.1-0.1,0.1-0.2,0.2-0.3c0.1-0.1,0.1-0.3,0.2-0.4
	c0.1-0.2,0.2-0.4,0.3-0.7c0,0,0-0.1,0.1-0.1c0-0.1,0.1-0.2,0.1-0.3c0,0,0,0,0,0c0,0,0,0,0-0.1c0-0.1,0-0.1,0.1-0.2c0,0,0-0.1,0-0.1
	c0,0,0,0,0,0c0-0.1,0-0.1,0.1-0.2c0,0,0-0.1,0-0.1c0,0,0,0,0,0c0.1-0.2,0.2-0.5,0.2-0.7c0.1-0.2,0.2-0.5,0.2-0.7c0,0,0,0,0,0
	c0-0.1,0-0.1,0.1-0.2c0.1-0.2,0.1-0.4,0.2-0.6c0-0.1,0.1-0.2,0.1-0.4c0-0.1,0.1-0.2,0.1-0.4c0.1-0.2,0.1-0.4,0.1-0.7
	c0,0,0-0.1,0-0.1c0,0,0-0.1,0-0.1c0,0,0,0,0-0.1c0-0.1,0.1-0.2,0.1-0.3C45.8,40.8,47.3,41.4,48.7,42.3z"/>
</svg>
